HIERARCHY
ROOT Root
{
  OFFSET 0.0 0.0 0.0
  CHANNELS 6 Xposition Yposition Zposition Zrotation Yrotation Xrotation
  JOINT Hips
  {
    OFFSET 0.0 100.0 0.0
    CHANNELS 6 Xposition Yposition Zposition Zrotation Yrotation Xrotation
    JOINT Spine1
    {
      OFFSET 5.003913 -0.037094 -0.013727
      CHANNELS 3 Zrotation Yrotation Xrotation
      JOINT Spine2
      {
        OFFSET 7.125363 -1e-06 0.0
        CHANNELS 3 Zrotation Yrotation Xrotation
        JOINT Chest
        {
          OFFSET 7.594027 1e-06 0.0
          CHANNELS 3 Zrotation Yrotation Xrotation
          JOINT Neck1
          {
            OFFSET 26.313086 -0.460272 -0.181672
            CHANNELS 3 Zrotation Yrotation Xrotation
            JOINT Neck2
            {
              OFFSET 8.045911 0.0 0.0
              CHANNELS 3 Zrotation Yrotation Xrotation
              JOINT Head
              {
                OFFSET 6.432774 0.0 0.0
                CHANNELS 3 Zrotation Yrotation Xrotation
                JOINT HeadEnd
                {
                  OFFSET 16.169773 0.06451 0.00362
                  CHANNELS 3 Zrotation Yrotation Xrotation
                }
                JOINT Jaw
                {
                  OFFSET 0.108741 3.12938 0.002639
                  CHANNELS 3 Zrotation Yrotation Xrotation
                }
                JOINT LeftEye
                {
                  OFFSET 4.45173 8.166359 3.206392
                  CHANNELS 3 Zrotation Yrotation Xrotation
                }
                JOINT RightEye
                {
                  OFFSET 4.436895 8.135758 -3.222429
                  CHANNELS 3 Zrotation Yrotation Xrotation
                }
              }
            }
          }
          JOINT LeftShoulder
          {
            OFFSET 23.218927 5.195579 1.621656
            CHANNELS 3 Zrotation Yrotation Xrotation
            JOINT LeftArm
            {
              OFFSET 15.902118 2e-06 -2e-06
              CHANNELS 3 Zrotation Yrotation Xrotation
              JOINT LeftForeArm
              {
                OFFSET 28.739307 0.0 -1e-06
                CHANNELS 3 Zrotation Yrotation Xrotation
                JOINT LeftHand
                {
                  OFFSET 27.093981 -4e-06 0.0
                  CHANNELS 3 Zrotation Yrotation Xrotation
                  JOINT LeftHandThumb1
                  {
                    OFFSET 2.276781 3.380274 0.83384
                    CHANNELS 3 Zrotation Yrotation Xrotation
                    JOINT LeftHandThumb2
                    {
                      OFFSET 4.705309 -1e-06 -1e-06
                      CHANNELS 3 Zrotation Yrotation Xrotation
                      JOINT LeftHandThumb3
                      {
                        OFFSET 2.798515 0.0 3e-06
                        CHANNELS 3 Zrotation Yrotation Xrotation
                        JOINT LeftHandThumbEnd
                        {
                          OFFSET 3.180793 4e-06 -4e-06
                          CHANNELS 3 Zrotation Yrotation Xrotation
                        }
                      }
                    }
                  }
                  JOINT LeftHandIndex1
                  {
                    OFFSET 3.247786 2.352677 0.137192
                    CHANNELS 3 Zrotation Yrotation Xrotation
                    JOINT LeftHandIndex2
                    {
                      OFFSET 6.367095 1e-06 0.0
                      CHANNELS 3 Zrotation Yrotation Xrotation
                      JOINT LeftHandIndex3
                      {
                        OFFSET 3.662364 0.0 0.0
                        CHANNELS 3 Zrotation Yrotation Xrotation
                        JOINT LeftHandIndex4
                        {
                          OFFSET 2.329242 4e-06 -4e-06
                          CHANNELS 3 Zrotation Yrotation Xrotation
                          JOINT LeftHandIndexEnd
                          {
                            OFFSET 2.767823 1e-06 0.0
                            CHANNELS 3 Zrotation Yrotation Xrotation
                          }
                        }
                      }
                    }
                  }
                  JOINT LeftHandMiddle1
                  {
                    OFFSET 3.163612 0.945023 -0.406112
                    CHANNELS 3 Zrotation Yrotation Xrotation
                    JOINT LeftHandMiddle2
                    {
                      OFFSET 6.276789 3e-06 0.0
                      CHANNELS 3 Zrotation Yrotation Xrotation
                      JOINT LeftHandMiddle3
                      {
                        OFFSET 4.35652 -1e-06 4e-06
                        CHANNELS 3 Zrotation Yrotation Xrotation
                        JOINT LeftHandMiddle4
                        {
                          OFFSET 2.996877 0.0 8e-06
                          CHANNELS 3 Zrotation Yrotation Xrotation
                          JOINT LeftHandMiddleEnd
                          {
                            OFFSET 2.323256 3e-06 -4e-06
                            CHANNELS 3 Zrotation Yrotation Xrotation
                          }
                        }
                      }
                    }
                  }
                  JOINT LeftHandRing1
                  {
                    OFFSET 2.882606 -0.309162 0.107445
                    CHANNELS 3 Zrotation Yrotation Xrotation
                    JOINT LeftHandRing2
                    {
                      OFFSET 6.033198 0.0 4e-06
                      CHANNELS 3 Zrotation Yrotation Xrotation
                      JOINT LeftHandRing3
                      {
                        OFFSET 4.350578 3e-06 0.0
                        CHANNELS 3 Zrotation Yrotation Xrotation
                        JOINT LeftHandRing4
                        {
                          OFFSET 2.651321 2e-06 -7e-06
                          CHANNELS 3 Zrotation Yrotation Xrotation
                          JOINT LeftHandRingEnd
                          {
                            OFFSET 1.937663 1e-06 -4e-06
                            CHANNELS 3 Zrotation Yrotation Xrotation
                          }
                        }
                      }
                    }
                  }
                  JOINT LeftHandPinky1
                  {
                    OFFSET 2.865315 -1.525436 0.575687
                    CHANNELS 3 Zrotation Yrotation Xrotation
                    JOINT LeftHandPinky2
                    {
                      OFFSET 5.54936 1e-06 -8e-06
                      CHANNELS 3 Zrotation Yrotation Xrotation
                      JOINT LeftHandPinky3
                      {
                        OFFSET 3.070974 0.0 -4e-06
                        CHANNELS 3 Zrotation Yrotation Xrotation
                        JOINT LeftHandPinky4
                        {
                          OFFSET 1.549672 1e-06 0.0
                          CHANNELS 3 Zrotation Yrotation Xrotation
                          JOINT LeftHandPinkyEnd
                          {
                            OFFSET 1.952123 0.0 0.0
                            CHANNELS 3 Zrotation Yrotation Xrotation
                          }
                        }
                      }
                    }
                  }
                }
              }
            }
          }
          JOINT RightShoulder
          {
            OFFSET 23.161716 5.296122 -1.380114
            CHANNELS 3 Zrotation Yrotation Xrotation
            JOINT RightArm
            {
              OFFSET -16.027195 -2e-06 1.1e-05
              CHANNELS 3 Zrotation Yrotation Xrotation
              JOINT RightForeArm
              {
                OFFSET -28.736639 4e-06 2e-06
                CHANNELS 3 Zrotation Yrotation Xrotation
                JOINT RightHand
                {
                  OFFSET -27.133619 6e-06 0.0
                  CHANNELS 3 Zrotation Yrotation Xrotation
                  JOINT RightHandThumb1
                  {
                    OFFSET -2.274328 -3.351035 -0.83067
                    CHANNELS 3 Zrotation Yrotation Xrotation
                    JOINT RightHandThumb2
                    {
                      OFFSET -4.703594 -3e-06 2e-06
                      CHANNELS 3 Zrotation Yrotation Xrotation
                      JOINT RightHandThumb3
                      {
                        OFFSET -2.794935 -4e-06 -3e-06
                        CHANNELS 3 Zrotation Yrotation Xrotation
                        JOINT RightHandThumbEnd
                        {
                          OFFSET -3.183852 4e-06 1e-06
                          CHANNELS 3 Zrotation Yrotation Xrotation
                        }
                      }
                    }
                  }
                  JOINT RightHandIndex1
                  {
                    OFFSET -3.253496 -2.33755 -0.127667
                    CHANNELS 3 Zrotation Yrotation Xrotation
                    JOINT RightHandIndex2
                    {
                      OFFSET -6.344434 0.0 0.0
                      CHANNELS 3 Zrotation Yrotation Xrotation
                      JOINT RightHandIndex3
                      {
                        OFFSET -3.654871 0.0 -8e-06
                        CHANNELS 3 Zrotation Yrotation Xrotation
                        JOINT RightHandIndex4
                        {
                          OFFSET -2.327586 -1e-06 0.0
                          CHANNELS 3 Zrotation Yrotation Xrotation
                          JOINT RightHandIndexEnd
                          {
                            OFFSET -2.770001 3e-06 8e-06
                            CHANNELS 3 Zrotation Yrotation Xrotation
                          }
                        }
                      }
                    }
                  }
                  JOINT RightHandMiddle1
                  {
                    OFFSET -3.168223 -0.944764 0.411762
                    CHANNELS 3 Zrotation Yrotation Xrotation
                    JOINT RightHandMiddle2
                    {
                      OFFSET -6.266691 -1e-06 -4e-06
                      CHANNELS 3 Zrotation Yrotation Xrotation
                      JOINT RightHandMiddle3
                      {
                        OFFSET -4.348901 0.0 0.0
                        CHANNELS 3 Zrotation Yrotation Xrotation
                        JOINT RightHandMiddle4
                        {
                          OFFSET -3.00024 2e-06 -4e-06
                          CHANNELS 3 Zrotation Yrotation Xrotation
                          JOINT RightHandMiddleEnd
                          {
                            OFFSET -2.321477 -4e-06 -4e-06
                            CHANNELS 3 Zrotation Yrotation Xrotation
                          }
                        }
                      }
                    }
                  }
                  JOINT RightHandRing1
                  {
                    OFFSET -2.885654 0.293261 -0.119232
                    CHANNELS 3 Zrotation Yrotation Xrotation
                    JOINT RightHandRing2
                    {
                      OFFSET -6.032835 -1e-06 -4e-06
                      CHANNELS 3 Zrotation Yrotation Xrotation
                      JOINT RightHandRing3
                      {
                        OFFSET -4.33881 0.0 -4e-06
                        CHANNELS 3 Zrotation Yrotation Xrotation
                        JOINT RightHandRing4
                        {
                          OFFSET -2.654903 -4e-06 -4e-06
                          CHANNELS 3 Zrotation Yrotation Xrotation
                          JOINT RightHandRingEnd
                          {
                            OFFSET -1.935122 0.0 4e-06
                            CHANNELS 3 Zrotation Yrotation Xrotation
                          }
                        }
                      }
                    }
                  }
                  JOINT RightHandPinky1
                  {
                    OFFSET -2.866241 1.503904 -0.60527
                    CHANNELS 3 Zrotation Yrotation Xrotation
                    JOINT RightHandPinky2
                    {
                      OFFSET -5.553177 -2e-06 0.0
                      CHANNELS 3 Zrotation Yrotation Xrotation
                      JOINT RightHandPinky3
                      {
                        OFFSET -3.062664 -1e-06 -4e-06
                        CHANNELS 3 Zrotation Yrotation Xrotation
                        JOINT RightHandPinky4
                        {
                          OFFSET -1.546529 2e-06 4e-06
                          CHANNELS 3 Zrotation Yrotation Xrotation
                          JOINT RightHandPinkyEnd
                          {
                            OFFSET -1.952341 0.0 -4e-06
                            CHANNELS 3 Zrotation Yrotation Xrotation
                          }
                        }
                      }
                    }
                  }
                }
              }
            }
          }
        }
      }
    }
    JOINT LeftLeg
    {
      OFFSET -8.443107 2.567604 10.043214
      CHANNELS 3 Zrotation Yrotation Xrotation
      JOINT LeftShin
      {
        OFFSET 43.229198 1e-06 -1e-06
        CHANNELS 3 Zrotation Yrotation Xrotation
        JOINT LeftFoot
        {
          OFFSET 42.298611 1e-06 1e-06
          CHANNELS 3 Zrotation Yrotation Xrotation
          JOINT LeftToeBase
          {
            OFFSET 14.165858 1e-06 0.0
            CHANNELS 3 Zrotation Yrotation Xrotation
            JOINT LeftToeEnd
            {
              OFFSET 6.7141 -0.234461 0.0
              CHANNELS 3 Zrotation Yrotation Xrotation
            }
          }
        }
      }
    }
    JOINT RightLeg
    {
      OFFSET -8.303923 2.592729 -10.047278
      CHANNELS 3 Zrotation Yrotation Xrotation
      JOINT RightShin
      {
        OFFSET -43.369682 0.0 1e-06
        CHANNELS 3 Zrotation Yrotation Xrotation
        JOINT RightFoot
        {
          OFFSET -42.260784 4e-06 2e-06
          CHANNELS 3 Zrotation Yrotation Xrotation
          JOINT RightToeBase
          {
            OFFSET -14.222245 -2e-06 -1e-06
            CHANNELS 3 Zrotation Yrotation Xrotation
            JOINT RightToeEnd
            {
              OFFSET -6.660062 0.232574 -2e-06
              CHANNELS 3 Zrotation Yrotation Xrotation
            }
          }
        }
      }
    }
  }
}
MOTION
Frames: 4
Frame Time: 0.03333333333333333
0.0 0.0 0.0 0.0 -0.0 0.0 2.541969 100.17643 -0.135105 90.882011 0.51058 91.21833 -1.071115 0.896108 0.219661 -11.438178 0.058123 0.554287 17.604052 0.461559 -1.456042 30.889439 -2.865766 2.27601 -2.494812 -0.942355 -1.26431 -31.332623 0.492074 -2.752519 6e-06 0.0 -0.0 0.045461 0.008521 0.056708 0.008356 -0.016713 0.059527 0.025809 0.025338 0.060717 -161.483704 -74.487343 174.225433 41.130489 -11.743485 -5.231598 70.398003 1.641818 0.400901 1.806039 29.683739 -10.441967 17.636631 -26.322729 52.411186 -19.466665 -14.395598 29.410389 -1e-06 -8.774822 -2e-06 15.376637 -17.551256 6.322614 -0.609774 -1.795653 -3.889327 -4.807088 -11.046809 -2.937849 6e-06 -20.976015 -1e-06 -5.01997 -25.033552 -4.031876 6e-06 -1e-06 0.0 -10.634535 -5.68697 -3.565587 10.573277 -17.922951 -3.113901 4e-06 -13.821208 1e-06 -0.501775 -31.181505 -4.027017 -11.928891 -59.92968 7.790251 -13.982715 -7.150197 -2.875037 13.772731 -8.401492 -3.218245 0.347736 -34.211555 0.771655 -0.963027 -17.73337 2.621019 -1e-06 -1e-06 -0.0 -17.346416 -20.095213 -4.201783 21.757563 -1.638376 3.866428 1e-06 -6.338823 -0.0 -1.697588 -22.591745 -6.194006 -1e-06 -0.0 -0.0 -8.475064 -85.527176 -160.735611 44.079247 -21.606743 -11.429255 68.151024 -0.72805 -0.683198 19.779985 26.115088 17.122992 22.182116 -20.375895 49.933327 -16.701813 -16.74353 28.476532 -2e-06 -12.690603 -3e-06 15.042169 -17.173153 2.618688 -0.105917 -1.513856 -4.275881 -5.039041 -5.612873 -2.953559 4e-06 -11.020527 -2e-06 -6.1113 -15.895334 -3.84047 2e-06 -1e-06 -0.0 -10.283371 -5.680288 -4.341836 11.028296 -11.302406 -2.372633 -1.384268 -14.238583 -6.320124 -0.62544 -26.924191 -3.8276 -4.228248 -48.615417 -3.52317 -13.708527 -7.363477 -3.720937 18.141151 -14.05274 -3.242674 7e-06 -18.787271 -3e-06 -0.429713 -8.456042 2.555504 -1e-06 -1e-06 -1e-06 -15.923536 -20.094484 -5.473582 30.419218 -7.190827 1.735927 4e-06 -8.162927 -0.0 -1.861903 -22.861469 -6.167944 0.0 -2e-06 -0.0 174.898438 -3.173142 -9.970629 13.056726 -0.010725 0.048993 -75.572449 -5.050241 -7.944839 -5.696682 1.563163 2.074438 -1.0 -1e-06 -0.0 -3.727641 -7.118035 -8.469124 13.027267 0.044832 0.076709 -76.533852 -3.383716 -8.183622 -5.473048 0.70836 1.69047 -1.000001 0.0 0.0 
0.0 0.0 0.0 0.0 -0.0 0.0 2.564495 100.166794 -0.02602 90.868011 0.487852 91.163651 -1.123768 0.903694 0.226162 -11.457484 0.078127 0.572382 17.552399 0.422777 -1.476575 30.528883 -2.964978 2.247119 -2.498272 -0.937756 -1.221086 -31.625996 0.467803 -2.763387 6e-06 0.0 0.0 0.041338 0.010706 0.070702 0.025842 -0.013825 0.076022 0.045938 0.026461 0.072962 -159.483444 -73.857956 172.640686 40.758545 -13.040443 -3.627603 72.089745 1.69981 0.626962 1.711774 29.245556 -8.006065 17.636627 -26.322733 52.411201 -19.46666 -14.3956 29.410389 0.0 -8.774821 -3e-06 15.436591 -17.68218 6.319149 -0.609776 -1.795653 -3.889329 -4.807089 -11.046811 -2.937847 3e-06 -20.976015 -0.0 -5.019973 -25.033552 -4.031878 5e-06 0.0 1e-06 -10.634534 -5.686971 -3.565589 10.573275 -17.922951 -3.1139 3e-06 -13.821209 1e-06 -0.501778 -31.181505 -4.027013 -12.010044 -60.086376 7.833815 -13.982716 -7.150198 -2.875043 13.77273 -8.40149 -3.218244 0.34773 -34.211555 0.771657 -0.963029 -17.733372 2.621019 0.0 0.0 1e-06 -17.346422 -20.095221 -4.201779 21.757559 -1.638372 3.866423 1e-06 -6.338823 0.0 -1.697591 -22.591745 -6.194006 -2e-06 -0.0 -0.0 -1.157899 -85.438553 -167.60289 43.508316 -23.384401 -10.152156 69.576317 -0.713942 -0.511655 19.836657 25.379463 19.059399 22.182121 -20.375896 49.933323 -16.701817 -16.74353 28.476534 -2e-06 -12.690602 -3e-06 14.882962 -17.182749 2.697947 -0.105919 -1.513856 -4.275885 -5.039042 -5.612871 -2.953557 5e-06 -11.020524 -3e-06 -6.111301 -15.895334 -3.840471 2e-06 1e-06 0.0 -10.283373 -5.680289 -4.341839 11.028296 -11.302406 -2.372632 -1.384272 -14.238582 -6.320125 -0.625439 -26.924192 -3.8276 -4.228046 -48.545067 -3.502934 -13.708527 -7.363476 -3.720944 18.14115 -14.052741 -3.242672 9e-06 -18.78727 -2e-06 -0.429713 -8.456042 2.555504 1e-06 -1e-06 -1e-06 -15.923539 -20.094486 -5.473585 30.419218 -7.190824 1.735927 4e-06 -8.162926 -2e-06 -1.861904 -22.861467 -6.167939 0.0 -3e-06 -2e-06 174.897247 -3.189028 -10.018173 13.208371 -0.013322 0.04477 -75.737801 -5.069299 -7.969786 -5.755361 1.574637 2.073092 -0.999999 -1e-06 -0.0 -3.69586 -7.131411 -8.465786 13.070127 0.047486 0.083656 -76.620308 -3.342346 -8.220263 -5.516804 0.716302 1.687213 -1.000002 0.0 -0.0 
0.0 0.0 0.0 0.0 -0.0 0.0 2.578144 100.154114 0.110526 90.851631 0.424741 91.163376 -1.179824 0.913084 0.210689 -11.481078 0.096317 0.590445 17.477528 0.37401 -1.517322 30.084385 -3.00571 2.212719 -2.509382 -0.946174 -1.155496 -31.877836 0.390002 -2.737968 6e-06 -0.0 -0.0 0.034869 0.013612 0.078306 0.030393 -0.008203 0.084541 0.049039 0.026664 0.080199 -157.358337 -73.22316 170.948288 40.175034 -14.653229 -2.084164 73.271713 1.589874 0.841862 1.252823 28.484913 -6.66972 17.636631 -26.322723 52.411182 -19.466663 -14.395598 29.410389 1e-06 -8.774822 -1e-06 15.499398 -17.792557 6.297768 -0.609776 -1.795654 -3.889326 -4.807091 -11.046812 -2.937852 3e-06 -20.976021 0.0 -5.019973 -25.03356 -4.031878 7e-06 2e-06 -0.0 -10.634535 -5.686971 -3.565588 10.573276 -17.922951 -3.1139 2e-06 -13.821208 -1e-06 -0.501778 -31.181505 -4.027015 -12.042626 -60.081848 7.809362 -13.982715 -7.150198 -2.875039 13.772731 -8.401491 -3.218242 0.347733 -34.211555 0.771654 -0.963027 -17.73337 2.621017 -1e-06 1e-06 1e-06 -17.346422 -20.095219 -4.201783 21.757561 -1.638375 3.866427 1e-06 -6.338825 -0.0 -1.697589 -22.591747 -6.194009 -2e-06 -3e-06 0.0 7.871329 -85.254181 -176.159286 42.809669 -25.61338 -8.574925 70.767876 -0.664142 -0.31286 19.757483 24.570343 20.823589 22.182117 -20.375898 49.933327 -16.701817 -16.743534 28.476536 -2e-06 -12.690602 -3e-06 14.700519 -17.209126 2.804895 -0.105918 -1.513856 -4.275882 -5.039041 -5.612872 -2.953555 5e-06 -11.020525 -3e-06 -6.111297 -15.895334 -3.84047 2e-06 -2e-06 0.0 -10.28337 -5.680288 -4.34184 11.028296 -11.302406 -2.372633 -1.384267 -14.238583 -6.320124 -0.625436 -26.924191 -3.827601 -4.256915 -48.474575 -3.442212 -13.708526 -7.363476 -3.720939 18.141151 -14.05274 -3.242674 1.1e-05 -18.787271 -2e-06 -0.429712 -8.456047 2.555502 -1e-06 1e-06 -1e-06 -15.923536 -20.094484 -5.473584 30.419222 -7.190827 1.735925 3e-06 -8.162927 -1e-06 -1.8619 -22.861469 -6.167942 1e-06 -5e-06 -4e-06 174.836838 -3.21677 -10.063609 13.410596 -0.014061 0.049433 -75.936531 -5.048453 -7.953847 -5.774037 1.570074 2.071217 -0.999999 -0.0 0.0 -3.701456 -7.144102 -8.511779 13.161932 0.044902 0.088487 -76.750885 -3.29396 -8.274018 -5.524469 0.725033 1.684467 -1.000001 0.0 0.0 
0.0 0.0 0.0 0.0 -0.0 0.0 2.582435 100.138435 0.278355 90.839149 0.328305 91.173599 -1.245189 0.919686 0.174024 -11.499883 0.10413 0.594631 17.377054 0.31202 -1.547419 29.56745 -3.024631 2.189055 -2.537038 -0.943262 -1.092759 -32.037327 0.282724 -2.670624 6e-06 0.0 0.0 0.02519 0.017056 0.075938 0.024509 -0.001736 0.082272 0.04076 0.027216 0.078092 -155.16716 -72.582878 169.232193 39.324718 -16.560688 -0.540758 73.99897 1.386567 0.977013 0.578188 27.548552 -5.984721 17.636633 -26.322735 52.411201 -19.466665 -14.3956 29.410389 -1e-06 -8.774822 -1e-06 15.535856 -17.873999 6.274837 -0.609777 -1.795654 -3.889326 -4.807087 -11.046811 -2.937853 4e-06 -20.976019 0.0 -5.019972 -25.033556 -4.031878 6e-06 1e-06 -1e-06 -10.634535 -5.68697 -3.565586 10.573277 -17.922953 -3.113901 2e-06 -13.821211 2e-06 -0.501777 -31.181505 -4.027014 -12.056636 -59.990139 7.742789 -13.982714 -7.150197 -2.875041 13.772731 -8.401492 -3.218243 0.347733 -34.211555 0.771657 -0.963027 -17.733372 2.621021 -0.0 1e-06 0.0 -17.346416 -20.095215 -4.201779 21.757559 -1.638375 3.866427 2e-06 -6.338823 1e-06 -1.697589 -22.591742 -6.194001 1e-06 -3e-06 -1e-06 17.154043 -84.884735 175.069763 41.891987 -28.251434 -6.674888 71.692207 -0.620773 -0.095528 19.605459 23.669504 22.643822 22.182114 -20.375893 49.933319 -16.701811 -16.74353 28.476528 -4e-06 -12.6906 -2e-06 14.503992 -17.224855 2.919616 -0.105916 -1.513857 -4.275881 -5.039042 -5.61287 -2.953556 5e-06 -11.020524 -4e-06 -6.111296 -15.89533 -3.840469 2e-06 -2e-06 0.0 -10.283365 -5.680288 -4.341839 11.028292 -11.302404 -2.372632 -1.384268 -14.238579 -6.320122 -0.625435 -26.924191 -3.827603 -4.317962 -48.435871 -3.349423 -13.708524 -7.363476 -3.720938 18.14115 -14.052739 -3.242675 1e-05 -18.78727 -4e-06 -0.429712 -8.456043 2.555504 -0.0 -0.0 -0.0 -15.923534 -20.094482 -5.473581 30.419205 -7.190826 1.735924 4e-06 -8.162925 -1e-06 -1.8619 -22.861467 -6.167943 2e-06 -3e-06 -0.0 174.745956 -3.251382 -10.119534 13.639022 -0.013692 0.058096 -76.162865 -4.998842 -7.90746 -5.773618 1.545985 2.069788 -0.999998 -2e-06 -0.0 -3.746078 -7.156298 -8.556676 13.312901 0.039017 0.083219 -76.933609 -3.238066 -8.341851 -5.513173 0.723761 1.679121 -1.000002 -0.0 -0.0 
